name Walk7.mot
datacolumns 19
datarows 17
range 1.83000000 1.91000000
endheader

                time	   L_ground_force_vx	   L_ground_force_vy	   L_ground_force_vz	   L_ground_force_px	   L_ground_force_py	   L_ground_force_pz	   R_ground_force_vx	   R_ground_force_vy	   R_ground_force_vz	   R_ground_force_px	   R_ground_force_py	   R_ground_force_pz	   L_ground_torque_x	   L_ground_torque_y	   L_ground_torque_z	   R_ground_torque_x	   R_ground_torque_y	   R_ground_torque_z	
          1.83000000	         -0.06723431	          0.58705082	         -0.06051863	          0.00052826	          0.00000000	          0.00027154	         19.13122553	        678.92952017	        -21.89436641	         -0.11988844	          0.00000000	          0.30533705	          0.00000000	         -0.00042541	          0.00000000	          0.00000000	          2.24166811	          0.00000000	
          1.83500000	         -0.07860065	          0.58471733	         -0.05387403	          0.00042262	          0.00000000	          0.00020945	         21.37227760	        690.74713951	        -22.43840202	         -0.11786548	          0.00000000	          0.30532255	          0.00000000	         -0.00051787	          0.00000000	          0.00000000	          2.13059139	          0.00000000	
          1.84000000	         -0.08663143	          0.50896648	         -0.03686839	          0.00020577	          0.00000000	          0.00008680	         23.83670179	        702.38202153	        -23.02008119	         -0.11591305	          0.00000000	          0.30529010	          0.00000000	         -0.00059820	          0.00000000	          0.00000000	          2.01144822	          0.00000000	
          1.84500000	         -0.08847037	          0.32807227	         -0.00580323	         -0.00015776	          0.00000000	         -0.00011516	         26.55328309	        713.81548780	        -23.61171058	         -0.11404760	          0.00000000	          0.30523907	          0.00000000	         -0.00064968	          0.00000000	          0.00000000	          1.88871878	          0.00000000	
          1.85000000	         -0.08042709	          0.00552899	          0.04335484	         -0.00070520	          0.00000000	         -0.00041590	         29.55158669	        725.03264585	        -24.17929610	         -0.11228592	          0.00000000	          0.30516728	          0.00000000	         -0.00064983	          0.00000000	          0.00000000	          1.76733592	          0.00000000	
          1.85500000	         -0.05796565	         -0.49812033	          0.11466408	         -0.00147188	          0.00000000	         -0.00083358	         32.85864538	        736.01249021	        -24.68586280	         -0.11064358	          0.00000000	          0.30507242	          0.00000000	         -0.00056992	          0.00000000	          0.00000000	          1.65205292	          0.00000000	
          1.86000000	         -0.01579095	         -1.22206864	          0.21172096	         -0.00248591	          0.00000000	         -0.00138209	         36.49559790	        746.71517285	        -25.09234567	         -0.10913268	          0.00000000	          0.30495401	          0.00000000	         -0.00037504	          0.00000000	          0.00000000	          1.54680901	          0.00000000	
          1.86500000	          0.05192290	         -2.20026358	          0.33695834	         -0.00376058	          0.00000000	         -0.00206698	         40.47384571	        757.07880422	        -25.35605064	         -0.10776196	          0.00000000	          0.30481104	          0.00000000	         -0.00002488	          0.00000000	          0.00000000	          1.45553658	          0.00000000	
          1.87000000	          0.15111094	         -3.45428662	          0.49069455	         -0.00528449	          0.00000000	         -0.00288006	         44.79193446	        767.02456297	        -25.43011373	         -0.10653696	          0.00000000	          0.30464061	          0.00000000	          0.00052422	          0.00000000	          0.00000000	          1.38355971	          0.00000000	
          1.87500000	          0.28714655	         -4.98377418	          0.66991127	         -0.00700912	          0.00000000	         -0.00379277	         49.43223859	        776.46030681	        -25.27391683	         -0.10545880	          0.00000000	          0.30444066	          0.00000000	          0.00131582	          0.00000000	          0.00000000	          1.33600771	          0.00000000	
          1.88000000	          0.46386447	         -6.75418674	          0.86675930	         -0.00883405	          0.00000000	         -0.00474827	         54.36287931	        785.28280661	        -24.86870366	         -0.10452239	          0.00000000	          0.30421122	          0.00000000	          0.00238795	          0.00000000	          0.00000000	          1.31548302	          0.00000000	
          1.88500000	          0.68222731	         -8.68195128	          1.06682437	         -0.01059033	          0.00000000	         -0.00565267	         59.54612192	        793.37826234	        -24.22110483	         -0.10371612	          0.00000000	          0.30395511	          0.00000000	          0.00376530	          0.00000000	          0.00000000	          1.32103135	          0.00000000	
          1.89000000	          0.93860010	        -10.61733981	          1.24723238	         -0.01202294	          0.00000000	         -0.00636585	         64.93950681	        800.62736046	        -23.35863676	         -0.10302424	          0.00000000	          0.30367801	          0.00000000	          0.00544875	          0.00000000	          0.00000000	          1.34832073	          0.00000000	
          1.89500000	          1.22262688	        -12.32592927	          1.37473820	         -0.01277417	          0.00000000	         -0.00669287	         70.49099265	        806.91657468	        -22.32535043	         -0.10242928	          0.00000000	          0.30338703	          0.00000000	          0.00740190	          0.00000000	          0.00000000	          1.39095493	          0.00000000	
          1.90000000	          1.51474825	        -13.47013583	          1.40402436	         -0.01237020	          0.00000000	         -0.00637739	         76.13988812	        812.14310360	        -21.17796858	         -0.10191336	          0.00000000	          0.30308953	          0.00000000	          0.00953475	          0.00000000	          0.00000000	          1.44085893	          0.00000000	
          1.90500000	          1.78346540	        -13.59314232	          1.27653698	         -0.01021466	          0.00000000	         -0.00509894	         81.82308690	        816.21587861	        -19.98036170	         -0.10145947	          0.00000000	          0.30279224	          0.00000000	          0.01168476	          0.00000000	          0.00000000	          1.48912656	          0.00000000	
          1.91000000	          1.98254610	        -12.10854001	          0.92030288	         -0.00559361	          0.00000000	         -0.00247651	         87.48280871	        819.05116200	        -18.79836574	         -0.10105180	          0.00000000	          0.30250275	          0.00000000	          0.01359639	          0.00000000	          0.00000000	          1.52685497	          0.00000000	
